# xmcd
#
# Track frame offsets:
#	150
#	14457
#	26142
#	36580
#	51290
#	64007
#	71450
#	83927
#	97470
#	111997
#
# Disc length: 1652
#
# Revision: 1
# Processed by: cddbd v1.5.1PL0 Copyright (c) Steve Scherf et al.
# Submitted via: CDex 1.40Release
# Normalized: r0:DSETVAR1,TDELIM( - )
#
DISCID=9306720a
DTITLE=Various Artist - Country Gospel
DYEAR=1992
DGENRE=Country
TTITLE0=B J Thomas - You'll Never Walk Alone
TTITLE1=Ray Stevens - Yes Jesus Loves Me
TTITLE2=Ferlin Husky - Wings Of A Dove
TTITLE3=Kenny Price - Peace In The Valley
TTITLE4=Patsy Cline - Just A Closer Walk With Thee
TTITLE5=Jerry Lee Lewis - Old Time Religion
TTITLE6=Oak Ridge Boys - In The Shelter Of His Arms
TTITLE7=Statler Brothers - How Great Thou Art
TTITLE8=Sandy Posey - Put Your Hand In The Hand
TTITLE9=Oak Ridge Boys - When I Lay My Burdens Down
EXTD=YEAR: 1992 ID3G: 2
EXTT0=
EXTT1=
EXTT2=
EXTT3=
EXTT4=
EXTT5=
EXTT6=
EXTT7=
EXTT8=
EXTT9=
PLAYORDER=
